<svg version="1.1" xmlns="http://www.w3.org/2000/svg" xmlns:xlink="http://www.w3.org/1999/xlink" width="407.4941" height="292.99631" viewBox="0,0,407.4941,292.99631"><g transform="translate(-22.32458,-25.04288)"><g data-paper-data="{&quot;isPaintingLayer&quot;:true}" fill-rule="nonzero" stroke-linejoin="miter" stroke-miterlimit="10" stroke-dasharray="" stroke-dashoffset="0" style="mix-blend-mode: normal"><path d="M81.07583,83.95451c0,-20.80952 16.86945,-37.67897 37.67897,-37.67897c20.80952,0 37.67897,16.86945 37.67897,37.67897c0,20.80952 -16.86945,37.67896 -37.67897,37.67896c-20.80952,0 -37.67897,-16.86944 -37.67897,-37.67896z" fill="none" stroke="#000000" stroke-width="3" stroke-linecap="butt"/><path d="M90.80377,278.86023c0,-20.80952 16.86945,-37.67897 37.67897,-37.67897c20.80952,0 37.67897,16.86945 37.67897,37.67897c0,20.80952 -16.86945,37.67897 -37.67897,37.67897c-20.80952,0 -37.67897,-16.86944 -37.67897,-37.67897z" fill="none" stroke="#000000" stroke-width="3" stroke-linecap="butt"/><path d="M351.1127,263.37247c0,-20.80952 16.86944,-37.67897 37.67897,-37.67897c20.80952,0 37.67897,16.86945 37.67897,37.67897c0,20.80952 -16.86944,37.67896 -37.67897,37.67896c-20.80952,0 -37.67897,-16.86944 -37.67897,-37.67896z" fill="none" stroke="#000000" stroke-width="3" stroke-linecap="butt"/><path d="M352.96074,69.01087c0,-20.80952 16.86944,-37.67897 37.67897,-37.67897c20.80952,0 37.67897,16.86945 37.67897,37.67897c0,20.80952 -16.86944,37.67897 -37.67897,37.67897c-20.80952,0 -37.67897,-16.86945 -37.67897,-37.67897z" fill="none" stroke="#000000" stroke-width="3" stroke-linecap="butt"/><path d="M154.9705,90.45691l195.42166,-25.2157" fill="none" stroke="#000000" stroke-width="3" stroke-linecap="round"/><path d="M388.2157,96.76083l-237.97314,149.71821" fill="none" stroke="#000000" stroke-width="3" stroke-linecap="round"/><path d="M385.85173,105.42873l2.36397,119.77456" fill="none" stroke="#000000" stroke-width="3" stroke-linecap="round"/><path d="M23.82458,208.72907c0,-20.80952 16.86945,-37.67897 37.67897,-37.67897c20.80952,0 37.67897,16.86945 37.67897,37.67897c0,20.80952 -16.86945,37.67897 -37.67897,37.67897c-20.80952,0 -37.67896,-16.86945 -37.67896,-37.67897z" fill="none" stroke="#000000" stroke-width="3" stroke-linecap="butt"/><path d="M66.71556,171.61993l13.39584,-92.19489" fill="none" stroke="#000000" stroke-width="3" stroke-linecap="round"/><text transform="translate(101.38714,107.82186) scale(1.50255,1.50255)" font-size="40" xml:space="preserve" fill="#000000" fill-rule="nonzero" stroke="none" stroke-width="1" stroke-linecap="butt" stroke-linejoin="miter" stroke-miterlimit="10" stroke-dasharray="" stroke-dashoffset="0" font-family="Sans Serif" font-weight="normal" text-anchor="start" style="mix-blend-mode: normal"><tspan x="0" dy="0">1</tspan></text><text transform="translate(379.81986,88.39415) scale(1.50255,1.50255)" font-size="40" xml:space="preserve" fill="#000000" fill-rule="nonzero" stroke="none" stroke-width="1" stroke-linecap="butt" stroke-linejoin="miter" stroke-miterlimit="10" stroke-dasharray="" stroke-dashoffset="0" font-family="Sans Serif" font-weight="normal" text-anchor="start" style="mix-blend-mode: normal"><tspan x="0" dy="0">2</tspan></text><text transform="translate(104.29523,291.17977) scale(1.50255,1.50255)" font-size="40" xml:space="preserve" fill="#000000" fill-rule="nonzero" stroke="none" stroke-width="1" stroke-linecap="butt" stroke-linejoin="miter" stroke-miterlimit="10" stroke-dasharray="" stroke-dashoffset="0" font-family="Sans Serif" font-weight="normal" text-anchor="start" style="mix-blend-mode: normal"><tspan x="0" dy="0">3</tspan></text><text transform="translate(370.1201,279.63197) scale(1.50255,1.50255)" font-size="40" xml:space="preserve" fill="#000000" fill-rule="nonzero" stroke="none" stroke-width="1" stroke-linecap="butt" stroke-linejoin="miter" stroke-miterlimit="10" stroke-dasharray="" stroke-dashoffset="0" font-family="Sans Serif" font-weight="normal" text-anchor="start" style="mix-blend-mode: normal"><tspan x="0" dy="0">4</tspan></text><text transform="translate(42.31603,226.8366) scale(1.50255,1.50255)" font-size="40" xml:space="preserve" fill="#000000" fill-rule="nonzero" stroke="none" stroke-width="1" stroke-linecap="butt" stroke-linejoin="miter" stroke-miterlimit="10" stroke-dasharray="" stroke-dashoffset="0" font-family="Sans Serif" font-weight="normal" text-anchor="start" style="mix-blend-mode: normal"><tspan x="0" dy="0">5</tspan></text></g></g></svg>