<svg version="1.1" xmlns="http://www.w3.org/2000/svg" xmlns:xlink="http://www.w3.org/1999/xlink" width="407.4941" height="315.65463" viewBox="0,0,407.4941,315.65463"><g transform="translate(-22.32458,-2.38458)"><g data-paper-data="{&quot;isPaintingLayer&quot;:true}" fill-rule="nonzero" stroke-linejoin="miter" stroke-miterlimit="10" stroke-dasharray="" stroke-dashoffset="0" style="mix-blend-mode: normal"><path d="M81.07583,83.95452c0,-20.80952 16.86945,-37.67897 37.67897,-37.67897c20.80952,0 37.67897,16.86945 37.67897,37.67897c0,20.80952 -16.86945,37.67896 -37.67897,37.67896c-20.80952,0 -37.67897,-16.86944 -37.67897,-37.67896z" fill="none" stroke="#000000" stroke-width="3" stroke-linecap="butt"/><path d="M90.80377,278.86024c0,-20.80952 16.86945,-37.67897 37.67897,-37.67897c20.80952,0 37.67897,16.86945 37.67897,37.67897c0,20.80952 -16.86945,37.67897 -37.67897,37.67897c-20.80952,0 -37.67897,-16.86944 -37.67897,-37.67897z" fill="none" stroke="#000000" stroke-width="3" stroke-linecap="butt"/><path d="M351.1127,263.37248c0,-20.80952 16.86944,-37.67897 37.67897,-37.67897c20.80952,0 37.67897,16.86945 37.67897,37.67897c0,20.80952 -16.86944,37.67896 -37.67897,37.67896c-20.80952,0 -37.67897,-16.86944 -37.67897,-37.67896z" fill="#ff0000" stroke="#ff0000" stroke-width="3" stroke-linecap="butt"/><path d="M352.96074,69.01088c0,-20.80952 16.86944,-37.67897 37.67897,-37.67897c20.80952,0 37.67897,16.86945 37.67897,37.67897c0,20.80952 -16.86944,37.67897 -37.67897,37.67897c-20.80952,0 -37.67897,-16.86945 -37.67897,-37.67897z" fill="none" stroke="#000000" stroke-width="3" stroke-linecap="butt"/><path d="M154.9705,90.45692l195.42166,-25.2157" fill="none" stroke="#000000" stroke-width="3" stroke-linecap="round"/><path d="M150.24256,246.47905l237.97314,-149.71821" fill="none" stroke="#000000" stroke-width="3" stroke-linecap="round"/><path d="M388.2157,225.2033l-2.36397,-119.77456" fill="none" stroke="#000000" stroke-width="3" stroke-linecap="round"/><path d="M23.82458,208.72908c0,-20.80952 16.86945,-37.67897 37.67897,-37.67897c20.80952,0 37.67897,16.86945 37.67897,37.67897c0,20.80952 -16.86945,37.67897 -37.67897,37.67897c-20.80952,0 -37.67896,-16.86945 -37.67896,-37.67897z" fill="none" stroke="#000000" stroke-width="3" stroke-linecap="butt"/><path d="M66.71556,171.61994l13.39584,-92.19489" fill="none" stroke="#000000" stroke-width="3" stroke-linecap="round"/><text transform="translate(101.38714,107.82187) scale(1.50255,1.50255)" font-size="40" xml:space="preserve" fill="#000000" fill-rule="nonzero" stroke="none" stroke-width="1" stroke-linecap="butt" stroke-linejoin="miter" stroke-miterlimit="10" stroke-dasharray="" stroke-dashoffset="0" font-family="Sans Serif" font-weight="normal" text-anchor="start" style="mix-blend-mode: normal"><tspan x="0" dy="0">1</tspan></text><text transform="translate(379.81986,88.39416) scale(1.50255,1.50255)" font-size="40" xml:space="preserve" fill="#000000" fill-rule="nonzero" stroke="none" stroke-width="1" stroke-linecap="butt" stroke-linejoin="miter" stroke-miterlimit="10" stroke-dasharray="" stroke-dashoffset="0" font-family="Sans Serif" font-weight="normal" text-anchor="start" style="mix-blend-mode: normal"><tspan x="0" dy="0">2</tspan></text><text transform="translate(104.29523,291.17978) scale(1.50255,1.50255)" font-size="40" xml:space="preserve" fill="#000000" fill-rule="nonzero" stroke="none" stroke-width="1" stroke-linecap="butt" stroke-linejoin="miter" stroke-miterlimit="10" stroke-dasharray="" stroke-dashoffset="0" font-family="Sans Serif" font-weight="normal" text-anchor="start" style="mix-blend-mode: normal"><tspan x="0" dy="0">3</tspan></text><text transform="translate(370.1201,279.63198) scale(1.50255,1.50255)" font-size="40" xml:space="preserve" fill="#ffffff" fill-rule="nonzero" stroke="none" stroke-width="1" stroke-linecap="butt" stroke-linejoin="miter" stroke-miterlimit="10" stroke-dasharray="" stroke-dashoffset="0" font-family="Sans Serif" font-weight="normal" text-anchor="start" style="mix-blend-mode: normal"><tspan x="0" dy="0">4</tspan></text><text transform="translate(42.31603,226.83661) scale(1.50255,1.50255)" font-size="40" xml:space="preserve" fill="#000000" fill-rule="nonzero" stroke="none" stroke-width="1" stroke-linecap="butt" stroke-linejoin="miter" stroke-miterlimit="10" stroke-dasharray="" stroke-dashoffset="0" font-family="Sans Serif" font-weight="normal" text-anchor="start" style="mix-blend-mode: normal"><tspan x="0" dy="0">5</tspan></text><text transform="translate(354.33639,216.52351) scale(0.5,0.5)" font-size="40" xml:space="preserve" fill="#ff0000" fill-rule="nonzero" stroke="none" stroke-width="1" stroke-linecap="butt" stroke-linejoin="miter" stroke-miterlimit="10" stroke-dasharray="" stroke-dashoffset="0" font-family="Sans Serif" font-weight="normal" text-anchor="start" style="mix-blend-mode: normal"><tspan x="0" dy="0">2</tspan></text><text transform="translate(125.03115,233.07131) scale(0.5,0.5)" font-size="40" xml:space="preserve" fill="#ff0000" fill-rule="nonzero" stroke="none" stroke-width="1" stroke-linecap="butt" stroke-linejoin="miter" stroke-miterlimit="10" stroke-dasharray="" stroke-dashoffset="0" font-family="Sans Serif" font-weight="normal" text-anchor="start" style="mix-blend-mode: normal"><tspan x="0" dy="0">2</tspan></text><text transform="translate(35.20023,161.36417) scale(0.5,0.5)" font-size="40" xml:space="preserve" fill="#ff0000" fill-rule="nonzero" stroke="none" stroke-width="1" stroke-linecap="butt" stroke-linejoin="miter" stroke-miterlimit="10" stroke-dasharray="" stroke-dashoffset="0" font-family="Sans Serif" font-weight="normal" text-anchor="start" style="mix-blend-mode: normal"><tspan x="0" dy="0">1</tspan></text><text transform="translate(362.2163,23.46583) scale(0.5,0.5)" font-size="40" xml:space="preserve" fill="#ff0000" fill-rule="nonzero" stroke="none" stroke-width="1" stroke-linecap="butt" stroke-linejoin="miter" stroke-miterlimit="10" stroke-dasharray="" stroke-dashoffset="0" font-family="Sans Serif" font-weight="normal" text-anchor="start" style="mix-blend-mode: normal"><tspan x="0" dy="0">1</tspan></text><text transform="translate(94.29952,38.43765) scale(0.5,0.5)" font-size="40" xml:space="preserve" fill="#ff0000" fill-rule="nonzero" stroke="none" stroke-width="1" stroke-linecap="butt" stroke-linejoin="miter" stroke-miterlimit="10" stroke-dasharray="" stroke-dashoffset="0" font-family="Sans Serif" font-weight="normal" text-anchor="start" style="mix-blend-mode: normal"><tspan x="0" dy="0">0</tspan></text><text transform="translate(224.81323,245.31404) scale(0.5,0.5)" font-size="40" xml:space="preserve" fill="none" fill-rule="nonzero" stroke="none" stroke-width="1" stroke-linecap="butt" stroke-linejoin="miter" stroke-miterlimit="10" stroke-dasharray="" stroke-dashoffset="0" font-family="Sans Serif" font-weight="normal" text-anchor="start" style="mix-blend-mode: normal"><tspan x="0" dy="0"> </tspan></text><text transform="translate(71.94307,158.8636) scale(0.46257,0.46257)" font-size="40" xml:space="preserve" fill="#000000" fill-rule="nonzero" stroke="none" stroke-width="1" stroke-linecap="butt" stroke-linejoin="miter" stroke-miterlimit="10" stroke-dasharray="" stroke-dashoffset="0" font-family="Sans Serif" font-weight="normal" text-anchor="start" style="mix-blend-mode: normal"><tspan x="0" dy="0">ここから遠いのを見る</tspan></text><text transform="translate(101.88671,142.87527) scale(0.5,0.5)" font-size="40" xml:space="preserve" fill="#000000" fill-rule="nonzero" stroke="none" stroke-width="1" stroke-linecap="butt" stroke-linejoin="miter" stroke-miterlimit="10" stroke-dasharray="" stroke-dashoffset="0" font-family="Sans Serif" font-weight="normal" text-anchor="start" style="mix-blend-mode: normal"><tspan x="0" dy="0">^</tspan></text></g></g></svg>