<svg version="1.1" xmlns="http://www.w3.org/2000/svg" xmlns:xlink="http://www.w3.org/1999/xlink" width="407.4941" height="311.01975" viewBox="0,0,407.4941,311.01975"><g transform="translate(-22.32458,-7.01947)"><g data-paper-data="{&quot;isPaintingLayer&quot;:true}" fill-rule="nonzero" stroke-linecap="butt" stroke-linejoin="miter" stroke-miterlimit="10" stroke-dasharray="" stroke-dashoffset="0" style="mix-blend-mode: normal"><path d="M351.1127,263.3725c0,-20.80952 16.86944,-37.67897 37.67897,-37.67897c20.80952,0 37.67897,16.86945 37.67897,37.67897c0,20.80952 -16.86944,37.67896 -37.67897,37.67896c-20.80952,0 -37.67897,-16.86944 -37.67897,-37.67896z" fill="none" stroke="#000000" stroke-width="3"/><path d="M352.96074,69.0109c0,-20.80952 16.86944,-37.67897 37.67897,-37.67897c20.80952,0 37.67897,16.86945 37.67897,37.67897c0,20.80952 -16.86944,37.67897 -37.67897,37.67897c-20.80952,0 -37.67897,-16.86945 -37.67897,-37.67897z" fill="none" stroke="#000000" stroke-width="3"/><path d="M23.82458,208.7291c0,-20.80952 16.86945,-37.67897 37.67897,-37.67897c20.80952,0 37.67897,16.86945 37.67897,37.67897c0,20.80952 -16.86945,37.67897 -37.67897,37.67897c-20.80952,0 -37.67896,-16.86945 -37.67896,-37.67897z" fill="none" stroke="#000000" stroke-width="3"/><text transform="translate(379.81986,88.39418) scale(1.50255,1.50255)" font-size="40" xml:space="preserve" fill="#000000" fill-rule="nonzero" stroke="none" stroke-width="1" stroke-linecap="butt" stroke-linejoin="miter" stroke-miterlimit="10" stroke-dasharray="" stroke-dashoffset="0" font-family="Sans Serif" font-weight="normal" text-anchor="start" style="mix-blend-mode: normal"><tspan x="0" dy="0">2</tspan></text><text transform="translate(370.1201,278.05602) scale(1.50255,1.50255)" font-size="40" xml:space="preserve" fill="#000000" fill-rule="nonzero" stroke="none" stroke-width="1" stroke-linecap="butt" stroke-linejoin="miter" stroke-miterlimit="10" stroke-dasharray="" stroke-dashoffset="0" font-family="Sans Serif" font-weight="normal" text-anchor="start" style="mix-blend-mode: normal"><tspan x="0" dy="0">4</tspan></text><text transform="translate(42.31603,226.83663) scale(1.50255,1.50255)" font-size="40" xml:space="preserve" fill="#000000" fill-rule="nonzero" stroke-opacity="0" stroke="#000000" stroke-width="0" stroke-linecap="butt" stroke-linejoin="miter" stroke-miterlimit="10" stroke-dasharray="" stroke-dashoffset="0" font-family="Sans Serif" font-weight="normal" text-anchor="start" style="mix-blend-mode: normal"><tspan x="0" dy="0">5</tspan></text><path d="M81.07583,83.95454c0,-20.80952 16.86945,-37.67897 37.67897,-37.67897c20.80952,0 37.67897,16.86945 37.67897,37.67897c0,20.80952 -16.86945,37.67896 -37.67897,37.67896c-20.80952,0 -37.67897,-16.86944 -37.67897,-37.67896z" fill="none" stroke="#000000" stroke-width="3"/><path d="M90.80377,278.86026c0,-20.80952 16.86945,-37.67897 37.67897,-37.67897c20.80952,0 37.67897,16.86945 37.67897,37.67897c0,20.80952 -16.86945,37.67897 -37.67897,37.67897c-20.80952,0 -37.67897,-16.86944 -37.67897,-37.67897z" fill="none" stroke="#000000" stroke-width="3"/><text transform="translate(101.38714,107.82189) scale(1.50255,1.50255)" font-size="40" xml:space="preserve" fill="#000000" fill-rule="nonzero" stroke="none" stroke-width="1" stroke-linecap="butt" stroke-linejoin="miter" stroke-miterlimit="10" stroke-dasharray="" stroke-dashoffset="0" font-family="Sans Serif" font-weight="normal" text-anchor="start" style="mix-blend-mode: normal"><tspan x="0" dy="0">1</tspan></text><text transform="translate(104.29523,291.17978) scale(1.50255,1.50255)" font-size="40" xml:space="preserve" fill="#000000" fill-rule="nonzero" stroke="none" stroke-width="1" stroke-linecap="butt" stroke-linejoin="miter" stroke-miterlimit="10" stroke-dasharray="" stroke-dashoffset="0" font-family="Sans Serif" font-weight="normal" text-anchor="start" style="mix-blend-mode: normal"><tspan x="0" dy="0">3</tspan></text><text transform="translate(39.63546,170.45496) scale(0.5,0.5)" font-size="40" xml:space="preserve" fill="#4400ff" fill-rule="nonzero" stroke="none" stroke-width="1" stroke-linecap="butt" stroke-linejoin="miter" stroke-miterlimit="10" stroke-dasharray="" stroke-dashoffset="0" font-family="Sans Serif" font-weight="normal" text-anchor="start" style="mix-blend-mode: normal"><tspan x="0" dy="0">3</tspan></text><text transform="translate(122.37446,231.91822) scale(0.5,0.5)" font-size="40" xml:space="preserve" fill="#ff0000" fill-rule="nonzero" stroke="none" stroke-width="1" stroke-linecap="butt" stroke-linejoin="miter" stroke-miterlimit="10" stroke-dasharray="" stroke-dashoffset="0" font-family="Sans Serif" font-weight="normal" text-anchor="start" style="mix-blend-mode: normal"><tspan x="0" dy="0">2</tspan></text><text transform="translate(105.03867,31.76862) scale(0.5,0.5)" font-size="40" xml:space="preserve" fill="#4400ff" fill-rule="nonzero" stroke="none" stroke-width="1" stroke-linecap="butt" stroke-linejoin="miter" stroke-miterlimit="10" stroke-dasharray="" stroke-dashoffset="0" font-family="Sans Serif" font-weight="normal" text-anchor="start" style="mix-blend-mode: normal"><tspan x="0" dy="0">2</tspan></text><text transform="translate(370.59148,216.15841) scale(0.5,0.5)" font-size="40" xml:space="preserve" fill="#ff0000" fill-rule="nonzero" stroke="none" stroke-width="1" stroke-linecap="butt" stroke-linejoin="miter" stroke-miterlimit="10" stroke-dasharray="" stroke-dashoffset="0" font-family="Sans Serif" font-weight="normal" text-anchor="start" style="mix-blend-mode: normal"><tspan x="0" dy="0">2</tspan></text><text transform="translate(382.6834,28.10073) scale(0.5,0.5)" font-size="40" xml:space="preserve" fill="#ff0000" fill-rule="nonzero" stroke="none" stroke-width="1" stroke-linecap="butt" stroke-linejoin="miter" stroke-miterlimit="10" stroke-dasharray="" stroke-dashoffset="0" font-family="Sans Serif" font-weight="normal" text-anchor="start" style="mix-blend-mode: normal"><tspan x="0" dy="0">1</tspan></text></g></g></svg>