<svg version="1.1" xmlns="http://www.w3.org/2000/svg" xmlns:xlink="http://www.w3.org/1999/xlink" width="437.16569" height="334.35026" viewBox="0,0,437.16569,334.35026"><g transform="translate(-5.50472,-4.38345)"><g data-paper-data="{&quot;isPaintingLayer&quot;:true}" fill-rule="nonzero" stroke-linecap="butt" stroke-linejoin="miter" stroke-miterlimit="10" stroke-dasharray="" stroke-dashoffset="0" style="mix-blend-mode: normal"><path d="M274.67762,82.92267c0,-20.80952 16.86944,-37.67897 37.67897,-37.67897c20.80952,0 37.67897,16.86945 37.67897,37.67897c0,20.80952 -16.86944,37.67896 -37.67897,37.67896c-20.80952,0 -37.67897,-16.86944 -37.67897,-37.67896z" fill="none" stroke="#000000" stroke-width="3"/><path d="M94.49985,76.89081c0,-20.80952 16.86944,-37.67897 37.67897,-37.67897c20.80952,0 37.67897,16.86945 37.67897,37.67897c0,20.80952 -16.86944,37.67897 -37.67897,37.67897c-20.80952,0 -37.67897,-16.86945 -37.67897,-37.67897z" fill="none" stroke="#000000" stroke-width="3"/><path d="M365.81247,83.43861c0,-20.80952 16.86945,-37.67897 37.67897,-37.67897c20.80952,0 37.67897,16.86945 37.67897,37.67897c0,20.80952 -16.86945,37.67897 -37.67897,37.67897c-20.80952,0 -37.67896,-16.86945 -37.67896,-37.67897z" fill="none" stroke="#000000" stroke-width="3"/><text transform="translate(121.35897,96.27409) scale(1.50255,1.50255)" font-size="40" xml:space="preserve" fill="#000000" fill-rule="nonzero" stroke="none" stroke-width="1" stroke-linecap="butt" stroke-linejoin="miter" stroke-miterlimit="10" stroke-dasharray="" stroke-dashoffset="0" font-family="Sans Serif" font-weight="normal" text-anchor="start" style="mix-blend-mode: normal"><tspan x="0" dy="0">2</tspan></text><text transform="translate(293.68502,97.60619) scale(1.50255,1.50255)" font-size="40" xml:space="preserve" fill="#000000" fill-rule="nonzero" stroke="none" stroke-width="1" stroke-linecap="butt" stroke-linejoin="miter" stroke-miterlimit="10" stroke-dasharray="" stroke-dashoffset="0" font-family="Sans Serif" font-weight="normal" text-anchor="start" style="mix-blend-mode: normal"><tspan x="0" dy="0">4</tspan></text><text transform="translate(384.30392,101.54614) scale(1.50255,1.50255)" font-size="40" xml:space="preserve" fill="#000000" fill-rule="nonzero" stroke-opacity="0" stroke="#000000" stroke-width="0" stroke-linecap="butt" stroke-linejoin="miter" stroke-miterlimit="10" stroke-dasharray="" stroke-dashoffset="0" font-family="Sans Serif" font-weight="normal" text-anchor="start" style="mix-blend-mode: normal"><tspan x="0" dy="0">5</tspan></text><path d="M7.00472,77.65062c0,-20.80952 16.86945,-37.67897 37.67897,-37.67897c20.80952,0 37.67897,16.86945 37.67897,37.67897c0,20.80952 -16.86945,37.67896 -37.67897,37.67896c-20.80952,0 -37.67897,-16.86944 -37.67897,-37.67896z" fill="none" stroke="#000000" stroke-width="3"/><path d="M183.78666,81.07464c0,-20.80952 16.86945,-37.67897 37.67897,-37.67897c20.80952,0 37.67897,16.86945 37.67897,37.67897c0,20.80952 -16.86945,37.67897 -37.67897,37.67897c-20.80952,0 -37.67897,-16.86944 -37.67897,-37.67897z" fill="none" stroke="#000000" stroke-width="3"/><text transform="translate(27.31603,101.51797) scale(1.50255,1.50255)" font-size="40" xml:space="preserve" fill="#000000" fill-rule="nonzero" stroke="none" stroke-width="1" stroke-linecap="butt" stroke-linejoin="miter" stroke-miterlimit="10" stroke-dasharray="" stroke-dashoffset="0" font-family="Sans Serif" font-weight="normal" text-anchor="start" style="mix-blend-mode: normal"><tspan x="0" dy="0">1</tspan></text><text transform="translate(197.27812,93.39416) scale(1.50255,1.50255)" font-size="40" xml:space="preserve" fill="#000000" fill-rule="nonzero" stroke="none" stroke-width="1" stroke-linecap="butt" stroke-linejoin="miter" stroke-miterlimit="10" stroke-dasharray="" stroke-dashoffset="0" font-family="Sans Serif" font-weight="normal" text-anchor="start" style="mix-blend-mode: normal"><tspan x="0" dy="0">3</tspan></text><text transform="translate(381.62335,45.16447) scale(0.5,0.5)" font-size="40" xml:space="preserve" fill="#4400ff" fill-rule="nonzero" stroke="none" stroke-width="1" stroke-linecap="butt" stroke-linejoin="miter" stroke-miterlimit="10" stroke-dasharray="" stroke-dashoffset="0" font-family="Sans Serif" font-weight="normal" text-anchor="start" style="mix-blend-mode: normal"><tspan x="0" dy="0">3</tspan></text><text transform="translate(215.35735,34.1326) scale(0.5,0.5)" font-size="40" xml:space="preserve" fill="#ff0000" fill-rule="nonzero" stroke="none" stroke-width="1" stroke-linecap="butt" stroke-linejoin="miter" stroke-miterlimit="10" stroke-dasharray="" stroke-dashoffset="0" font-family="Sans Serif" font-weight="normal" text-anchor="start" style="mix-blend-mode: normal"><tspan x="0" dy="0">2</tspan></text><text transform="translate(30.96756,25.4647) scale(0.5,0.5)" font-size="40" xml:space="preserve" fill="#4400ff" fill-rule="nonzero" stroke="none" stroke-width="1" stroke-linecap="butt" stroke-linejoin="miter" stroke-miterlimit="10" stroke-dasharray="" stroke-dashoffset="0" font-family="Sans Serif" font-weight="normal" text-anchor="start" style="mix-blend-mode: normal"><tspan x="0" dy="0">2</tspan></text><text transform="translate(294.1564,35.70858) scale(0.5,0.5)" font-size="40" xml:space="preserve" fill="#ff0000" fill-rule="nonzero" stroke="none" stroke-width="1" stroke-linecap="butt" stroke-linejoin="miter" stroke-miterlimit="10" stroke-dasharray="" stroke-dashoffset="0" font-family="Sans Serif" font-weight="normal" text-anchor="start" style="mix-blend-mode: normal"><tspan x="0" dy="0">2</tspan></text><text transform="translate(124.22251,35.98064) scale(0.5,0.5)" font-size="40" xml:space="preserve" fill="#ff0000" fill-rule="nonzero" stroke="none" stroke-width="1" stroke-linecap="butt" stroke-linejoin="miter" stroke-miterlimit="10" stroke-dasharray="" stroke-dashoffset="0" font-family="Sans Serif" font-weight="normal" text-anchor="start" style="mix-blend-mode: normal"><tspan x="0" dy="0">1</tspan></text><text transform="translate(16.8026,216.79619) scale(0.5,0.5)" font-size="40" xml:space="preserve" fill="#9966ff" fill-rule="nonzero" stroke="none" stroke-width="1" stroke-linecap="butt" stroke-linejoin="miter" stroke-miterlimit="10" stroke-dasharray="" stroke-dashoffset="0" font-family="Sans Serif" font-weight="normal" text-anchor="start" style="mix-blend-mode: normal"><tspan x="0" dy="0">Ans:</tspan><tspan x="0" dy="46.150000000000006px">4</tspan><tspan x="0" dy="46.150000000000006px">5</tspan><tspan x="0" dy="46.150000000000006px">5</tspan><tspan x="0" dy="46.150000000000006px">5</tspan><tspan x="0" dy="46.150000000000006px">4</tspan></text><text transform="translate(23.65191,146.01993) scale(0.5,0.5)" font-size="40" xml:space="preserve" fill="#000000" fill-rule="nonzero" stroke="none" stroke-width="1" stroke-linecap="butt" stroke-linejoin="miter" stroke-miterlimit="10" stroke-dasharray="" stroke-dashoffset="0" font-family="Sans Serif" font-weight="normal" text-anchor="start" style="mix-blend-mode: normal"><tspan x="0" dy="0">4</tspan></text><text transform="translate(138.5682,152.10821) scale(0.5,0.5)" font-size="40" xml:space="preserve" fill="#000000" fill-rule="nonzero" stroke="none" stroke-width="1" stroke-linecap="butt" stroke-linejoin="miter" stroke-miterlimit="10" stroke-dasharray="" stroke-dashoffset="0" font-family="Sans Serif" font-weight="normal" text-anchor="start" style="mix-blend-mode: normal"><tspan x="0" dy="0">5</tspan></text><text transform="translate(213.14963,152.10821) scale(0.5,0.5)" font-size="40" xml:space="preserve" fill="#000000" fill-rule="nonzero" stroke="none" stroke-width="1" stroke-linecap="butt" stroke-linejoin="miter" stroke-miterlimit="10" stroke-dasharray="" stroke-dashoffset="0" font-family="Sans Serif" font-weight="normal" text-anchor="start" style="mix-blend-mode: normal"><tspan x="0" dy="0">5</tspan></text><text transform="translate(294.58037,146.01993) scale(0.5,0.5)" font-size="40" xml:space="preserve" fill="#000000" fill-rule="nonzero" stroke="none" stroke-width="1" stroke-linecap="butt" stroke-linejoin="miter" stroke-miterlimit="10" stroke-dasharray="" stroke-dashoffset="0" font-family="Sans Serif" font-weight="normal" text-anchor="start" style="mix-blend-mode: normal"><tspan x="0" dy="0">5</tspan></text><text transform="translate(384.3825,146.01993) scale(0.5,0.5)" font-size="40" xml:space="preserve" fill="#000000" fill-rule="nonzero" stroke="none" stroke-width="1" stroke-linecap="butt" stroke-linejoin="miter" stroke-miterlimit="10" stroke-dasharray="" stroke-dashoffset="0" font-family="Sans Serif" font-weight="normal" text-anchor="start" style="mix-blend-mode: normal"><tspan x="0" dy="0">4</tspan></text><path d="M43.31866,155.93411c0.74031,-0.12016 0.86047,0.62015 0.86047,0.62015l0.00816,0.05028c-0.00131,0.34609 -0.27152,0.81878 -0.00393,1.03827c0.70549,0.57868 1.86666,-0.01056 2.71927,0.31445c1.45929,0.55628 2.48502,1.30891 4.03469,1.64919c4.68908,1.06051 8.05204,3.96662 12.04371,6.38188c1.25122,0.75707 3.01611,1.09465 4.13997,2.02904c0.19853,0.16505 1.63499,2.22868 1.87045,2.50377c2.37876,2.77914 4.63954,5.04648 6.58323,8.19515c6.16023,7.75046 11.2357,19.29937 11.23023,29.35003c-0.00177,3.23846 0.72248,7.84602 -1.00538,10.766c-2.43586,4.11644 -8.79145,6.0118 -12.65235,8.4869c-1.85151,1.18695 -3.29036,2.44127 -5.47396,2.89306c-8.83418,1.74627 -17.69715,2.6992 -26.28033,5.56026c0,0 -0.71151,0.23717 -0.94868,-0.47434c-0.23717,-0.71151 0.47434,-0.94868 0.47434,-0.94868c8.64547,-2.88182 17.56626,-3.84826 26.46365,-5.60874c1.95511,-0.36502 3.29655,-1.62089 4.95544,-2.68435c3.58303,-2.29696 9.91861,-4.17083 12.17056,-7.98729c1.5502,-2.62717 0.79513,-7.09509 0.79671,-10.00362c0.00531,-9.77265 -4.98644,-20.94799 -10.95772,-28.48708c-1.92737,-3.11036 -4.14108,-5.3314 -6.49531,-8.0819c-0.62313,-0.72801 -0.95298,-1.71311 -1.68985,-2.32575c-1.04356,-0.86763 -2.79008,-1.19272 -3.95753,-1.89911c-3.83604,-2.32109 -7.08049,-5.2022 -11.59488,-6.20146c-1.97302,-0.4492 -3.56316,-1.70384 -5.53695,-2.07029c-0.62129,-0.11534 -1.41428,0.19341 -1.88144,-0.2321c-0.48869,-0.44512 -0.32304,-1.28198 -0.48456,-1.92298l-0.00816,-0.05027c0,0 -0.12016,-0.74031 0.62015,-0.86047z" fill="#000000" stroke="#000000" stroke-width="2"/><path d="M142.64155,147.60262c0.70041,0.26818 0.43223,0.9686 0.43223,0.9686l-0.03125,0.0816c-1.97526,5.15879 -4.68406,9.95104 -7.0303,14.93677c-1.70174,3.6162 -2.7049,7.53947 -4.4804,11.14063c-1.20924,2.36295 -1.13249,5.88055 -1.62049,8.56039c-1.34397,7.38045 -2.2569,14.88649 -4.10589,22.16288c-0.97745,3.84436 -2.50463,7.63135 -3.34027,11.49347c-0.52592,2.43067 -0.27726,5.08259 -0.93118,7.48176c-1.03414,3.79418 -3.14558,7.40663 -4.32768,11.20375c-1.02225,3.28364 -2.87466,4.96528 -4.80302,7.70883c-1.05864,1.50618 -1.79836,4.11482 -3.20301,5.29644c-0.97677,0.82167 -3.21245,1.27374 -4.4175,1.7349c-3.77997,1.44657 -7.47802,3.00293 -11.4187,3.93993c-10.23217,2.43296 -20.46583,4.72387 -30.76821,6.84025c-8.82724,1.81335 -17.82368,2.12572 -26.58552,4.31617c0,0 -0.72761,0.1819 -0.90951,-0.5457c-0.1819,-0.7276 0.5457,-0.90951 0.5457,-0.90951c8.78417,-2.19604 17.79919,-2.5126 26.64748,-4.33027c10.28731,-2.11329 20.50585,-4.40085 30.72306,-6.83025c3.87491,-0.92136 7.51209,-2.45888 11.22956,-3.88154c1.03492,-0.39606 3.14804,-0.77524 3.98802,-1.48185c1.25912,-1.05919 1.98034,-3.64376 2.94142,-5.01113c1.84175,-2.62033 3.62923,-4.18027 4.598,-7.29214c1.17611,-3.77785 3.28464,-7.38053 4.31269,-11.15233c0.64527,-2.36743 0.39253,-5.00223 0.91231,-7.40453c0.83971,-3.88092 2.37057,-7.68348 3.3526,-11.54588c1.84233,-7.24176 2.74624,-14.71611 4.08391,-22.06198c0.52531,-2.88472 0.50852,-6.36132 1.75105,-8.95539c1.77358,-3.59168 2.77017,-7.50703 4.46833,-11.1156c2.3307,-4.95271 5.02451,-9.70977 6.9867,-14.83444l0.03125,-0.0816c0,0 0.26818,-0.70041 0.96859,-0.43223z" fill="#000000" stroke="#000000" stroke-width="2"/><path d="M233.73317,156.48404c0.19038,-0.72544 0.91582,-0.53505 0.91582,-0.53505l0.5135,0.13477c4.35276,1.23474 4.6135,5.41301 4.61137,9.31258c-0.00389,7.13637 -0.32743,13.98346 -1.55867,21.02354c-0.94234,5.3882 -0.56131,11.11561 -1.93966,16.42099c-1.31372,5.05655 -4.14912,9.28849 -7.37703,13.25211c-3.70341,4.54749 -8.50854,8.86051 -13.08777,12.54573c-3.48598,2.80541 -7.55642,4.89569 -10.87321,7.91013c-4.84064,4.39107 -9.8471,8.47759 -14.86912,12.65283c-3.14407,2.61393 -5.98022,5.39733 -9.55383,7.41165c-6.23114,3.51227 -12.48917,6.11972 -19.0516,8.92255c-3.23173,1.38028 -6.34163,3.13006 -9.69354,4.19695c-9.99717,3.17262 -19.37282,8.59547 -29.76495,10.32367c-10.51596,1.74879 -20.8289,2.1777 -31.48119,2.1777c-10.5,0 -21,0 -31.5,0c-9,0 -18,0 -27,0c0,0 -0.75,0 -0.75,-0.75c0,-0.75 0.75,-0.75 0.75,-0.75c9,0 18,0 27,0c10.5,0 21,0 31.5,0c10.56998,0 20.80075,-0.42216 31.23512,-2.15738c10.30986,-1.71452 19.63531,-7.12496 29.55729,-10.27372c3.30481,-1.0455 6.37321,-2.78639 9.5581,-4.14667c6.51406,-2.78217 12.71951,-5.36371 18.90422,-8.84981c3.48961,-1.96696 6.2593,-4.70426 9.33142,-7.25837c5.00561,-4.16159 9.99546,-8.23369 14.82026,-12.61039c3.3469,-3.03065 7.42975,-5.1423 10.94059,-7.96771c4.49832,-3.6201 9.22656,-7.8565 12.86511,-12.32435c3.09766,-3.80369 5.82619,-7.82409 7.08832,-12.68208c1.3664,-5.25934 0.97923,-10.95789 1.9139,-16.30222c1.21644,-6.95549 1.53239,-13.71509 1.53624,-20.76593c0.00165,-3.02775 0.0938,-7.02138 -3.49213,-7.8609l-0.51351,-0.13476c0,0 -0.72544,-0.19038 -0.53505,-0.91582z" fill="#000000" stroke="#000000" stroke-width="2"/><path d="M294.4232,160.79582c0.44481,0.60386 -0.15905,1.04867 -0.15905,1.04867l-0.33007,0.24314c-2.29625,1.66458 -4.32587,4.04375 -6.5623,5.92086c-2.82058,3.29495 -6.2132,6.54117 -8.44503,10.28085c-3.07862,5.15857 -5.23909,10.5102 -6.92235,16.29071c-1.33949,4.59306 -3.08171,9.98469 -5.45349,14.15348c-2.70103,4.74749 -6.34817,8.91859 -9.04298,13.74996c-2.43131,4.34801 -5.95884,8.11353 -8.73983,12.25328c-2.90019,4.31719 -5.58093,10.47564 -10.07809,13.29713c-8.9393,5.51514 -17.66218,11.39521 -26.73408,16.68583c-9.08417,5.29777 -18.23158,10.42972 -27.46655,15.45987c-9.29277,5.05428 -19.48932,8.36382 -29.76311,10.53857c-10.31056,2.18253 -20.75953,3.40611 -31.24798,4.41672c-10.45913,1.00778 -20.94603,1.45506 -31.41551,2.34444c-10.46525,0.88903 -21.00949,1.49761 -31.5174,1.49761c-9,0 -18,0 -27,0c0,0 -0.75,0 -0.75,-0.75c0,-0.75 0.75,-0.75 0.75,-0.75c9,0 18,0 27,0c10.46561,0 20.9673,-0.60679 31.39043,-1.49223c10.46385,-0.88891 20.94516,-1.33567 31.39862,-2.3429c10.43238,-1.0052 20.82583,-2.22027 31.08121,-4.39112c10.12912,-2.14412 20.19834,-5.39257 29.35625,-10.38836c9.22217,-5.02318 18.35681,-10.14793 27.42838,-15.43836c9.06112,-5.28433 17.77345,-11.15807 26.70215,-16.66667c4.26861,-2.58068 6.89722,-8.80308 9.62055,-12.85699c2.75532,-4.10153 6.27618,-7.83528 8.67496,-12.14751c1.21643,-2.18087 2.32029,-4.49879 3.67928,-6.59294c1.60859,-2.47875 3.91043,-4.60279 5.36993,-7.16809c2.31234,-4.0643 4.01459,-9.3512 5.31707,-13.8311c1.71689,-5.89598 3.93446,-11.3786 7.07448,-16.64004c2.29593,-3.84709 5.76503,-7.19783 8.67759,-10.57794c2.29786,-1.94143 4.37711,-4.30745 6.72817,-6.06278l0.33008,-0.24313c0,0 0.60386,-0.44482 1.04867,0.15904z" fill="#000000" stroke="#000000" stroke-width="2"/><path d="M390.38923,156.35693c0.3175,0.67948 -0.36199,0.99697 -0.36199,0.99697l-0.53377,0.2494c-1.60238,0.67034 -1.54654,1.58743 -2.23893,3.17609c-2.68745,2.18318 -4.35294,5.11975 -5.64586,8.23534c-0.73823,1.77895 -2.32324,3.51103 -3.37596,5.12866c-2.74901,4.22414 -5.45401,8.387 -8.47616,12.42356c-1.78445,2.38341 -3.70138,4.71373 -5.37391,7.17639c-1.65804,2.44132 -2.8306,5.51391 -4.76221,7.74033c-2.85309,3.28852 -7.24522,5.82682 -10.71014,8.43362c-7.99611,6.77853 -16.03349,13.522 -23.82166,20.54008c-4.81387,4.33787 -10.01065,8.32598 -14.7286,12.75168c-2.91917,2.73835 -5.25252,6.25869 -8.57108,8.52276c-8.74597,5.93207 -17.89617,10.92748 -27.0315,16.22674c-9.17854,5.32432 -18.92079,8.98195 -28.71103,13.05327c-9.79453,3.99056 -19.1262,8.26158 -28.47789,13.20302c-9.31795,4.92361 -17.70299,11.36651 -27.38869,15.57802c-4.54406,1.97584 -9.11867,4.44368 -13.81845,6.00524c-5.17503,1.71947 -10.83776,2.55793 -16.14873,3.80791c-10.50876,1.75937 -20.67278,3.72405 -31.34005,3.72405c-10.5,0 -21,0 -31.5,0c-10.5,0 -21,0 -31.5,0c-9,0 -18,0 -27,0c0,0 -0.75,0 -0.75,-0.75c0,-0.75 0.75,-0.75 0.75,-0.75c9,0 18,0 27,0c10.5,0 21,0 31.5,0c10.5,0 21,0 31.5,0c10.56756,0 20.63171,-1.95713 31.04422,-3.69459c5.25086,-1.23883 10.85502,-2.06081 15.97158,-3.76085c4.65612,-1.54706 9.19099,-3.99967 13.69329,-5.95735c9.64761,-4.19495 18.00322,-10.62362 27.28604,-15.52866c9.393,-4.96326 18.76996,-9.25578 28.60771,-13.26387c9.72755,-4.04533 19.41037,-7.67392 28.52934,-12.96368c9.10506,-5.2817 18.22542,-10.25838 26.94216,-16.17063c3.24939,-2.1896 5.53733,-5.70237 8.38684,-8.37537c4.72546,-4.43275 9.9293,-8.42736 14.7507,-12.77201c7.81008,-7.03781 15.86807,-13.8034 23.88953,-20.59767c3.38468,-2.54864 7.72674,-5.03274 10.5134,-8.24469c1.88699,-2.17498 3.0326,-5.21219 4.65435,-7.60008c1.68555,-2.48182 3.61574,-4.83072 5.41404,-7.23264c3.00254,-4.01037 5.68846,-8.1459 8.4197,-12.34275c0.99264,-1.52529 2.56557,-3.19849 3.24522,-4.87933c1.26853,-3.13723 3.0668,-6.46656 5.8395,-8.57401c0.76042,-1.91107 0.88924,-2.66851 2.79826,-3.62752l0.53377,-0.24941c0,0 0.67948,-0.31749 0.99698,0.362z" fill="#000000" stroke="#000000" stroke-width="2"/><text transform="translate(255.76759,312.6866) scale(0.5,0.5)" font-size="40" xml:space="preserve" fill="#000000" fill-rule="nonzero" stroke="none" stroke-width="1" stroke-linecap="butt" stroke-linejoin="miter" stroke-miterlimit="10" stroke-dasharray="" stroke-dashoffset="0" font-family="Sans Serif" font-weight="normal" text-anchor="start" style="mix-blend-mode: normal"><tspan x="0" dy="0">答えと同じ！</tspan></text><text transform="translate(330.90434,255.26642) scale(0.37185,0.37185)" font-size="40" xml:space="preserve" fill="#000000" fill-rule="nonzero" stroke="none" stroke-width="1" stroke-linecap="butt" stroke-linejoin="miter" stroke-miterlimit="10" stroke-dasharray="" stroke-dashoffset="0" font-family="Sans Serif" font-weight="normal" text-anchor="start" style="mix-blend-mode: normal"><tspan x="0" dy="0">赤=&gt;5</tspan><tspan x="0" dy="48px">青=&gt;4</tspan></text></g></g></svg>